<svg width="80" height="80" viewBox="0 0 80 80" fill="none" xmlns="http://www.w3.org/2000/svg">
<rect width="80" height="80" rx="10" fill="#0E1720"/>
<path d="M14.8403 10L17.8029 16.185V63.8175L14.8403 70H50.8454L54.1135 58.295H30.5281V10H14.8403ZM39.4988 13.79C37.2671 13.79 35.1039 14.07 33.0262 14.57V18.92C35.1319 18.3093 37.3101 17.9996 39.4988 18C52.3731 18 62.808 28.46 62.808 41.37C62.8084 46.9727 60.8093 52.383 57.186 56.585L56.5187 58.97L55.0472 64.25C62.2629 59.2675 67 50.9125 67 41.445C66.9976 26.17 54.6854 13.79 39.4988 13.79ZM39.4988 20.4725C37.2402 20.4725 35.0648 20.8425 33.0262 21.5075V55.79H54.5779C58.2702 51.9396 60.341 46.7632 60.3465 41.37C60.3465 29.8275 51.014 20.4725 39.4988 20.4725ZM15.3096 28.28C13.1336 32.3088 11.9947 36.8373 12 41.44C12 46.205 13.2026 50.69 15.3121 54.605L15.3096 28.28Z" fill="#CDA764"/>
</svg>
