<svg width="80" height="80" viewBox="0 0 80 80" fill="none" xmlns="http://www.w3.org/2000/svg">
<rect width="80" height="80" rx="10" fill="white"/>
<path d="M72.4084 60.9083C69.1134 65.3567 66.1701 64.5083 66.1701 60.9083V20.3383C45.7251 52.7517 39.7951 63.345 42.1251 67.0517" stroke="black" stroke-width="4" stroke-linecap="round" stroke-linejoin="round"/>
<path d="M72.4082 14.62C69.9505 16.068 67.825 18.0169 66.1698 20.34M65.1215 22.0017C42.0532 9.74666 38.8048 42.3717 48.2932 49.5583H66.1698" stroke="black" stroke-width="4" stroke-linecap="round" stroke-linejoin="round"/>
<path d="M60.5951 29.2167C57.5184 28.39 52.8584 27.26 50.1751 32.555M43.6801 58.3767C51.8701 61.0133 54.1301 62.6383 56.5301 64.4733C59.9217 62.285 64.8634 59.1067 66.1701 59.1067M15.1934 21.4667C15.1934 21.4667 0.711739 43.8417 19.1601 44.395C22.6384 44.4983 35.5017 47.595 23.6851 58.8283C22.2767 60.1617 21.2351 61.2117 20.0634 62.3C4.4634 76.7583 4.7384 52.6033 13.0484 53.27C18.4251 53.27 28.7734 63.215 28.7734 63.215C42.0801 49.91 41.9467 33.7817 24.2034 33.7817C6.46007 33.7817 18.6917 12.9483 18.6917 12.9483L29.7134 20.7433M31.9584 16.44L17.8117 54.8433" stroke="black" stroke-width="4" stroke-linecap="round" stroke-linejoin="round"/>
</svg>
