<svg width="80" height="80" viewBox="0 0 80 80" fill="none" xmlns="http://www.w3.org/2000/svg">
<rect width="80" height="80" rx="10" fill="#FF4655"/>
<path d="M59.6515 16.0148C59.5859 16.0432 59.5296 16.0868 59.4881 16.1411C53.8471 22.5778 48.2082 29.0145 42.5716 35.4511C42.3932 35.5926 42.5299 35.8894 42.7699 35.8544C46.8349 35.8589 50.8982 35.8544 54.9632 35.8559C55.1386 35.8642 55.3137 35.834 55.4738 35.7678C55.6339 35.7016 55.7742 35.6014 55.8832 35.4755L59.7565 31.0581C59.9336 30.8447 60.0189 30.5794 59.9965 30.3124C59.9931 25.6303 59.9965 20.9496 59.9915 16.2674C60.0181 16.1001 59.8248 15.9555 59.6515 16.0148ZM20.1267 16.0361C19.9983 16.094 20.0033 16.237 20 16.3481C20.0022 21.0267 20.0028 25.7058 20.0017 30.3855C19.9907 30.642 20.0845 30.8931 20.265 31.09L32.9983 45.622C33.1983 45.8533 33.5116 46.0024 33.8399 45.9978C37.9316 45.9978 42.0232 46.0024 46.1149 45.9978C46.3515 46.0282 46.4849 45.733 46.3082 45.5946C37.7666 35.8331 29.2083 26.0792 20.665 16.3161C20.5317 16.1731 20.375 15.9022 20.1283 16.0361H20.1267Z" fill="black"/>
<path d="M8.105 49.874H9.444C9.48733 49.874 9.52633 49.8913 9.561 49.926C9.59567 49.952 9.613 49.9867 9.613 50.03V56.166L14.28 50.082C14.3927 49.9433 14.5357 49.874 14.709 49.874H16.36C16.412 49.874 16.4467 49.8957 16.464 49.939C16.49 49.9823 16.49 50.0213 16.464 50.056L9.769 58.766C9.65633 58.9047 9.51333 58.974 9.34 58.974H8.105C8.06167 58.974 8.02267 58.961 7.988 58.935C7.962 58.9003 7.949 58.8613 7.949 58.818V50.03C7.949 49.9867 7.962 49.952 7.988 49.926C8.02267 49.8913 8.06167 49.874 8.105 49.874ZM17.4959 58.844V50.056C17.4959 50.0127 17.5089 49.978 17.5349 49.952C17.5695 49.9173 17.6085 49.9 17.6519 49.9H18.8869C19.0602 49.9 19.2032 49.9693 19.3159 50.108L26.0109 58.818C26.0369 58.8613 26.0369 58.9047 26.0109 58.948C25.9935 58.9827 25.9589 59 25.9069 59H24.2559C24.0825 59 23.9395 58.9307 23.8269 58.792L21.5779 55.854L19.3159 58.792C19.2032 58.9307 19.0602 59 18.8869 59H17.6519C17.6085 59 17.5695 58.987 17.5349 58.961C17.5089 58.9263 17.4959 58.8873 17.4959 58.844ZM19.1599 52.708V56.192L20.4989 54.45L19.1599 52.708ZM27.1988 49.9H28.5378C28.6504 49.9 28.7068 49.952 28.7068 50.056V57.349H32.3468C32.3988 57.349 32.4334 57.3707 32.4508 57.414C32.4768 57.4573 32.4768 57.4963 32.4508 57.531L31.4758 58.792C31.3631 58.9307 31.2244 59 31.0598 59H27.1988C27.1554 59 27.1164 58.987 27.0818 58.961C27.0558 58.9263 27.0428 58.8873 27.0428 58.844V50.056C27.0428 50.0127 27.0558 49.978 27.0818 49.952C27.1164 49.9173 27.1554 49.9 27.1988 49.9ZM33.1153 54.411C33.1153 53.7437 33.2366 53.124 33.4793 52.552C33.7306 51.9713 34.0643 51.473 34.4803 51.057C34.9049 50.6323 35.4033 50.303 35.9753 50.069C36.5473 49.8263 37.1626 49.7093 37.8213 49.718C38.4799 49.7267 39.0953 49.8567 39.6673 50.108C40.2393 50.3593 40.7333 50.7017 41.1493 51.135C41.5739 51.5683 41.9076 52.0753 42.1503 52.656C42.3929 53.228 42.5099 53.839 42.5013 54.489C42.4926 55.1477 42.3626 55.763 42.1113 56.335C41.8599 56.907 41.5176 57.4053 41.0843 57.83C40.6596 58.2547 40.1613 58.5883 39.5893 58.831C39.0173 59.065 38.4019 59.182 37.7433 59.182C37.0933 59.182 36.4823 59.0607 35.9103 58.818C35.3469 58.5667 34.8573 58.2287 34.4413 57.804C34.0253 57.3707 33.7003 56.8637 33.4663 56.283C33.2323 55.7023 33.1153 55.0783 33.1153 54.411ZM34.7793 54.476C34.7793 54.9007 34.8616 55.3037 35.0263 55.685C35.1909 56.0663 35.4119 56.4 35.6893 56.686C35.9666 56.972 36.2873 57.1973 36.6513 57.362C37.0153 57.5267 37.4053 57.609 37.8213 57.609C38.2286 57.6003 38.6143 57.5093 38.9783 57.336C39.3423 57.1627 39.6586 56.933 39.9273 56.647C40.2046 56.3523 40.4213 56.0143 40.5773 55.633C40.7333 55.243 40.8069 54.8357 40.7983 54.411C40.7983 53.9863 40.7159 53.5833 40.5513 53.202C40.3866 52.8207 40.1656 52.4913 39.8883 52.214C39.6109 51.928 39.2859 51.7027 38.9133 51.538C38.5493 51.3733 38.1636 51.291 37.7563 51.291C37.3489 51.2997 36.9633 51.3907 36.5993 51.564C36.2353 51.7287 35.9189 51.9583 35.6503 52.253C35.3816 52.539 35.1693 52.8727 35.0133 53.254C34.8573 53.6353 34.7793 54.0427 34.7793 54.476ZM43.991 50.03C43.991 49.9867 44.004 49.952 44.03 49.926C44.0647 49.8913 44.1037 49.874 44.147 49.874H51.011C51.0543 49.874 51.089 49.8913 51.115 49.926C51.1497 49.952 51.167 49.9867 51.167 50.03V51.941C51.167 52.0623 51.128 52.1707 51.05 52.266L48.996 54.957L51.934 58.792C51.96 58.8353 51.96 58.8787 51.934 58.922C51.9167 58.9567 51.8863 58.974 51.843 58.974H50.192C50.0187 58.974 49.8757 58.9047 49.763 58.766L46.916 55.061C46.8553 54.9917 46.8553 54.9267 46.916 54.866L49.477 51.525H45.655V58.818C45.655 58.922 45.5987 58.974 45.486 58.974H44.147C44.1037 58.974 44.0647 58.961 44.03 58.935C44.004 58.9003 43.991 58.8613 43.991 58.818V50.03ZM53.1607 49.9H54.3957C54.569 49.9 54.712 49.9693 54.8247 50.108L61.5067 58.818C61.5413 58.8527 61.5457 58.8917 61.5197 58.935C61.5023 58.9783 61.4677 59 61.4157 59H59.7647C59.5913 59 59.4483 58.9307 59.3357 58.792L57.0867 55.854L54.8247 58.792C54.712 58.9307 54.569 59 54.3957 59H53.1607C53.1173 59 53.0783 58.987 53.0437 58.961C53.0177 58.9263 53.0047 58.8873 53.0047 58.844V50.056C53.0047 50.0127 53.0177 49.978 53.0437 49.952C53.0783 49.9173 53.1173 49.9 53.1607 49.9ZM60.1807 50.056C60.1807 49.952 60.237 49.9 60.3497 49.9H61.5847C61.7493 49.9 61.888 49.9693 62.0007 50.108L66.6807 56.192V50.056C66.6807 49.952 66.7327 49.9 66.8367 49.9H68.1757C68.2883 49.9 68.3447 49.952 68.3447 50.056V58.844C68.3447 58.8873 68.3273 58.9263 68.2927 58.961C68.258 58.987 68.219 59 68.1757 59H66.9407C66.7673 59 66.6243 58.9307 66.5117 58.792L61.8447 52.708V56.27C61.8447 56.322 61.8187 56.3567 61.7667 56.374C61.7147 56.3913 61.6713 56.3783 61.6367 56.335L60.2977 54.593C60.2197 54.4977 60.1807 54.3893 60.1807 54.268V50.056ZM54.6687 52.708V56.192L56.0077 54.45L54.6687 52.708ZM69.7772 50.03C69.7772 49.9867 69.7902 49.952 69.8162 49.926C69.8509 49.8913 69.8899 49.874 69.9332 49.874H75.5752C75.7485 49.874 75.8915 49.9433 76.0042 50.082L76.9662 51.343C77.0009 51.3863 77.0052 51.4297 76.9792 51.473C76.9619 51.5077 76.9272 51.525 76.8752 51.525H73.9762V58.818C73.9762 58.922 73.9242 58.974 73.8202 58.974H72.4812C72.3772 58.974 72.3252 58.922 72.3252 58.818V51.525H69.9332C69.8899 51.525 69.8509 51.512 69.8162 51.486C69.7902 51.4513 69.7772 51.4123 69.7772 51.369V50.03Z" fill="black"/>
</svg>
