<svg width="80" height="80" viewBox="0 0 80 80" fill="none" xmlns="http://www.w3.org/2000/svg">
<rect width="80" height="80" rx="10" fill="black"/>
<path d="M10 30V50H16.215V42.7769H20.535L22.2125 38.407H16.215V34.3471H23.515L25.1075 30H10ZM27.01 30L27 50H33.1425V30H27.01ZM37.385 30V50H43.595V42.7769H47.91L49.6025 38.407H43.595V34.3471H50.9L52.5 30H37.385ZM56.53 30L49.455 50H55.3925L56.1575 47.312H63.08L63.88 50H70L62.9075 30H56.53ZM59.6175 35.1397L62.07 43.4654H57.2525L59.6175 35.1397Z" fill="white"/>
</svg>
