<svg width="80" height="80" viewBox="0 0 80 80" fill="none" xmlns="http://www.w3.org/2000/svg">
<rect width="80" height="80" rx="10" fill="white"/>
<path d="M35.7172 45.1834L40.4423 25.4837L45.1147 44.8399L47.8707 28.1762C48.198 25.7972 47.8116 25.4689 46.7344 24.5079L57.3936 24.5267C56.1881 25.6143 55.2375 27.1789 54.4035 29.4941C52.8682 36.7905 51.4491 44.5933 50.2978 52.7469C50.0686 54.0747 50.3876 55.4257 51.5703 56.8132H41.6723C42.1088 55.4719 42.135 53.991 41.908 52.4241L40.4871 44.1192C40.4871 44.1192 38.6359 52.3166 38.5125 53.7581C38.367 55.4576 39.1443 56.8132 39.1443 56.8132H29.0841C31.1465 55.0602 31.1082 54.4681 30.504 51.5205C29.0688 44.2935 27.2702 36.6443 25.0819 28.5421C24.8557 26.0032 22.7295 24.411 22.7295 24.411H32.823C32.823 24.411 32.0646 26.9284 32.7433 30.3493C33.4059 34.7749 34.4712 39.8362 35.7172 45.1834ZM26.2373 22.17V18.4621C26.5418 17.5907 27.5701 16.558 28.7707 15.5441V15H15V15.52C16.3252 16.6772 17.5252 17.8879 17.528 18.6558V61.3528C17.528 61.9961 16.1331 63.5927 15 64.3805V64.9998H28.7082V64.4488C28.2146 64.0603 25.9957 62.2949 26.1656 61.125V40.8407L22.9887 27.9504C22.7986 27.0645 22.273 26.1729 21.1685 25.2717C19.9344 24.0775 21.2042 22.0171 22.2964 22.1699L26.2373 22.17ZM57.4826 22.0545C59.0312 22.0545 60.0778 24.067 58.8194 25.3835C57.4613 26.7 56.7791 28.1602 56.5891 29.0461C55.6996 32.9663 54.8203 37.8725 53.9449 43.1538L54.0404 60.9659C54.2104 62.1358 51.8959 64.0605 51.4023 64.449V65H65V64.3806C63.8669 63.593 62.472 61.9963 62.472 61.353V18.6557C62.4748 17.8878 63.6748 16.6771 65 15.5198V15H51.3398V15.5441C52.5404 16.558 53.5688 17.5908 53.8732 18.4622V22.0545H57.4826ZM44.3525 18.6234C44.476 17.7843 45.7666 16.4424 46.9673 15.4283V15H33.1966V15.52C34.5218 16.6772 35.8376 17.849 35.8376 18.9463L35.7451 36.5996L38.5928 24.5873C39.1594 22.6935 41.4553 22.6678 42.0532 24.5485L44.9079 36.5996C44.9286 32.2043 44.6729 25.6468 44.3525 18.6234ZM35.9668 58.1936V61.353C35.5657 62.5472 34.3779 63.6444 33.3753 64.4189V64.9353H47.1478V64.4189C46.0708 63.7054 45.1606 62.873 44.3892 61.5144V58.1936H35.9668Z" fill="black"/>
</svg>
