<svg width="80" height="80" viewBox="0 0 80 80" fill="none" xmlns="http://www.w3.org/2000/svg">
<rect width="80" height="80" rx="10" fill="#E1800A"/>
<mask id="path-2-inside-1_191_19" fill="white">
<path d="M73.6914 14.4351C73.6828 14.4361 73.6741 14.435 73.666 14.4321C73.6578 14.4292 73.6504 14.4245 73.6443 14.4184C73.6381 14.4122 73.6335 14.4048 73.6306 14.3966C73.6277 14.3884 73.6267 14.3796 73.6276 14.371C73.6334 14.1347 73.6392 13.2918 73.6421 13.1343C73.6421 12.7581 73.2269 12.6006 73.0266 12.8923L72.3617 13.8635C72.356 13.8736 72.3475 13.8818 72.3371 13.887C72.3268 13.8922 72.3151 13.8942 72.3037 13.8927H53.2868C53.2689 13.893 53.2511 13.8899 53.2344 13.8833C53.2177 13.8768 53.2024 13.867 53.1895 13.8546C53.1765 13.8421 53.1662 13.8272 53.1589 13.8107C53.1517 13.7943 53.1478 13.7765 53.1475 13.7585L53.1097 13.2423C53.1094 13.2217 53.1136 13.2014 53.122 13.1827C53.1305 13.164 53.1429 13.1474 53.1584 13.134C53.1739 13.1206 53.1921 13.1109 53.2118 13.1054C53.2315 13.0999 53.2522 13.0988 53.2723 13.1023L54.2449 13.1956C54.2859 13.1989 54.3268 13.1876 54.3603 13.1636C54.3937 13.1395 54.4177 13.1044 54.4278 13.0643L55.1362 10.1798C55.1414 10.1476 55.1356 10.1145 55.1198 10.086C55.104 10.0574 55.0791 10.035 55.0491 10.0223L54.3901 9.77442C54.371 9.7677 54.354 9.75609 54.3408 9.74074C54.3275 9.7254 54.3185 9.70684 54.3146 9.68692C54.1956 9.18818 53.22 5.82826 48.5283 5.07869C46.2433 4.71412 44.7481 5.69118 43.9497 6.47283C43.5957 6.82185 43.2997 7.22557 43.0729 7.66863L42.7913 8.28695C42.7333 8.51158 42.6887 8.73948 42.6577 8.96944L42.8058 11.8335C42.8068 11.8816 42.8185 11.9289 42.8401 11.9718C42.8617 12.0147 42.8926 12.0522 42.9306 12.0815L43.9584 12.5277L43.3893 13.4756C43.3799 13.5092 43.3597 13.5388 43.3319 13.5599C43.3041 13.5809 43.2703 13.5923 43.2355 13.5922C43.2355 13.5922 42.0248 13.6214 41.4296 13.6506C40.3089 13.6943 37.8149 15.0651 35.9771 19.0113L33.8751 23.532C33.8577 23.5692 33.8295 23.6001 33.7943 23.621C33.7591 23.6418 33.7185 23.6514 33.6777 23.6487L31.9996 23.6516C31.8979 23.6516 31.7876 23.7333 31.7441 23.8266L29.1369 31.2493C29.1171 31.3016 29.1112 31.3582 29.1198 31.4134C29.1285 31.4687 29.1514 31.5207 29.1862 31.5643L31.0066 32.7076C31.0306 32.728 31.0486 32.7544 31.0588 32.7842C31.069 32.814 31.0711 32.846 31.0647 32.8768L30.1124 35.6972C30.1003 35.7607 30.0777 35.8219 30.0456 35.878L28.7827 36.9921C28.7291 37.0364 28.693 37.0985 28.6811 37.1671L26.9449 41.6295C26.935 41.668 26.9124 41.702 26.8807 41.7259C26.849 41.7497 26.8102 41.762 26.7707 41.7608L25.7951 41.7666C25.6769 41.7669 25.563 41.8117 25.4759 41.8921C25.3889 41.9725 25.335 42.0828 25.3248 42.2012L24.7412 48.8744L24.6948 49.2273L24.236 51.8755C24.2171 51.9365 24.1832 51.9917 24.1373 52.036L22.5173 53.2813C21.6504 54.1519 20.9017 55.1335 20.2904 56.2009L14.8902 67.6456C14.7503 67.9393 14.6732 68.2593 14.6638 68.5847L15.047 69.2701C15.0528 69.5151 14.9541 70.6001 14.8438 70.8159L13.0321 73.995C13.0126 74.0332 13.0017 74.0752 13.0002 74.118C12.9987 74.1609 13.0066 74.2035 13.0234 74.2429L13.1105 74.4471L13.3834 74.9925L18.8736 74.9983C19.2162 75.0304 19.5907 74.59 19.6023 74.1234L19.9014 70.3405L19.823 69.7718L30.2924 57.4287C30.5682 57.0963 30.9369 56.5042 31.1228 56.1163L36.1136 45.0624C36.1423 45.0022 36.1828 44.9484 36.2327 44.9043C36.2826 44.8602 36.3408 44.8266 36.4039 44.8057L36.7204 44.7036C36.8142 44.6731 36.9149 44.6716 37.0096 44.6991C37.1043 44.7267 37.1886 44.7821 37.2517 44.8582C37.6872 45.3861 38.715 47.1361 39.2144 47.8681C39.6295 48.4748 41.6822 51.4556 42.5764 52.4384C42.8261 52.7097 43.5897 53.0159 43.9294 53.2259C43.9835 53.2582 44.0228 53.3104 44.0391 53.3714C44.0554 53.4325 44.0473 53.4975 44.0165 53.5526L41.026 58.8258L39.705 65.0557C39.6587 65.2005 39.6238 65.3487 39.6005 65.499L38.4043 69.8243C38.413 70.3726 37.9979 70.6584 37.9601 71.303L37.5246 74.4646C37.5242 74.4876 37.5284 74.5104 37.5368 74.5318C37.5452 74.5532 37.5577 74.5727 37.5736 74.5892C37.5895 74.6057 37.6085 74.6189 37.6295 74.6281C37.6505 74.6372 37.673 74.6421 37.6959 74.6425L45.082 74.6834C45.3568 74.6814 45.6336 74.6756 45.9123 74.6659L46.1301 74.6454C46.4901 74.5988 47.7647 74.4238 48.3076 74.208C48.5524 74.1318 48.7774 74.0023 48.9667 73.8288C49.5038 73.263 49.5473 73.018 49.556 72.668C49.5477 72.5618 49.5202 72.458 49.4747 72.3617C49.433 72.2982 49.3719 72.2501 49.3005 72.2247L45.8746 71.1864C45.6537 71.119 45.4603 70.982 45.323 70.7955L44.4026 69.4247C44.383 69.3776 44.3774 69.3257 44.3867 69.2754C44.396 69.2252 44.4197 69.1787 44.4549 69.1418L46.2491 67.3656C46.3103 67.3067 46.3579 67.235 46.3885 67.1556L51.9164 54.0659C52.1748 53.2347 52.0877 52.3014 51.9164 51.3126C51.7887 50.5835 49.9248 47.4452 49.437 46.5761L45.7033 40.0108C45.4739 39.6083 45.1517 39.6229 45.0413 39.2058L44.8294 35.9451C44.8251 35.9285 44.8245 35.9111 44.8276 35.8942C44.8308 35.8774 44.8376 35.8614 44.8475 35.8475C44.8575 35.8335 44.8704 35.822 44.8854 35.8137C44.9003 35.8053 44.9169 35.8004 44.9339 35.7992L45.892 35.7176C45.9366 35.7127 45.9795 35.6976 46.0173 35.6733C46.055 35.649 46.0867 35.6162 46.1098 35.5776L49.4399 29.2923C49.4614 29.2496 49.4721 29.2023 49.4711 29.1545C49.4701 29.1067 49.4574 29.0599 49.4341 29.0181L48.7518 28.1723C48.7295 28.1334 48.7175 28.0893 48.717 28.0444C48.7165 27.9994 48.7275 27.9551 48.7489 27.9157L49.7709 26.8074C49.7915 26.7717 49.8253 26.7456 49.865 26.7347C49.9046 26.7237 49.9469 26.7289 49.9828 26.749L52.6945 28.2832C52.86 28.3752 53.0454 28.4253 53.2346 28.429C53.9894 28.4261 55.2262 27.9798 55.8708 27.5832C56.04 27.4766 56.179 27.3279 56.2743 27.1515L57.6041 24.0308C57.6215 23.9899 57.6825 23.9958 57.6912 24.0395L58.0599 25.7749C58.0646 25.8 58.0745 25.8239 58.0888 25.845C58.1031 25.8662 58.1216 25.8841 58.1431 25.8978C58.1646 25.9115 58.1887 25.9206 58.2138 25.9245C58.2389 25.9284 58.2646 25.9272 58.2893 25.9207L62.2088 25.0457C62.2579 25.0346 62.3006 25.0044 62.3278 24.9619C62.3549 24.9193 62.3643 24.8677 62.3539 24.8182L61.4278 20.8983C61.4218 20.8715 61.4213 20.8437 61.4263 20.8166C61.4313 20.7895 61.4416 20.7638 61.4568 20.7408L61.8342 20.1488C61.8818 20.0749 61.918 19.9943 61.9417 19.9096L62.4033 17.7951C62.4087 17.7683 62.4233 17.7443 62.4445 17.7273C62.4658 17.7102 62.4922 17.7012 62.5194 17.7017L73.3547 17.7163C73.3905 17.7175 73.4261 17.7114 73.4594 17.6982C73.4927 17.685 73.523 17.665 73.5483 17.6396C73.5736 17.6142 73.5935 17.5838 73.6066 17.5503C73.6197 17.5168 73.6259 17.481 73.6247 17.4451V15.596C73.6242 15.5875 73.6256 15.5791 73.6287 15.5713C73.6317 15.5634 73.6365 15.5564 73.6426 15.5505C73.6486 15.5447 73.6559 15.5403 73.6638 15.5376C73.6718 15.5348 73.6802 15.5338 73.6885 15.5347H77.8664C77.9021 15.5339 77.9361 15.5192 77.9611 15.4935C77.986 15.4679 78 15.4335 78 15.3976V14.5664C78 14.5305 77.986 14.4961 77.9611 14.4705C77.9361 14.4449 77.9021 14.4301 77.8664 14.4293H73.6856L73.6914 14.4351Z"/>
</mask>
<path d="M73.6914 14.4351C73.6828 14.4361 73.6741 14.435 73.666 14.4321C73.6578 14.4292 73.6504 14.4245 73.6443 14.4184C73.6381 14.4122 73.6335 14.4048 73.6306 14.3966C73.6277 14.3884 73.6267 14.3796 73.6276 14.371C73.6334 14.1347 73.6392 13.2918 73.6421 13.1343C73.6421 12.7581 73.2269 12.6006 73.0266 12.8923L72.3617 13.8635C72.356 13.8736 72.3475 13.8818 72.3371 13.887C72.3268 13.8922 72.3151 13.8942 72.3037 13.8927H53.2868C53.2689 13.893 53.2511 13.8899 53.2344 13.8833C53.2177 13.8768 53.2024 13.867 53.1895 13.8546C53.1765 13.8421 53.1662 13.8272 53.1589 13.8107C53.1517 13.7943 53.1478 13.7765 53.1475 13.7585L53.1097 13.2423C53.1094 13.2217 53.1136 13.2014 53.122 13.1827C53.1305 13.164 53.1429 13.1474 53.1584 13.134C53.1739 13.1206 53.1921 13.1109 53.2118 13.1054C53.2315 13.0999 53.2522 13.0988 53.2723 13.1023L54.2449 13.1956C54.2859 13.1989 54.3268 13.1876 54.3603 13.1636C54.3937 13.1395 54.4177 13.1044 54.4278 13.0643L55.1362 10.1798C55.1414 10.1476 55.1356 10.1145 55.1198 10.086C55.104 10.0574 55.0791 10.035 55.0491 10.0223L54.3901 9.77442C54.371 9.7677 54.354 9.75609 54.3408 9.74074C54.3275 9.7254 54.3185 9.70684 54.3146 9.68692C54.1956 9.18818 53.22 5.82826 48.5283 5.07869C46.2433 4.71412 44.7481 5.69118 43.9497 6.47283C43.5957 6.82185 43.2997 7.22557 43.0729 7.66863L42.7913 8.28695C42.7333 8.51158 42.6887 8.73948 42.6577 8.96944L42.8058 11.8335C42.8068 11.8816 42.8185 11.9289 42.8401 11.9718C42.8617 12.0147 42.8926 12.0522 42.9306 12.0815L43.9584 12.5277L43.3893 13.4756C43.3799 13.5092 43.3597 13.5388 43.3319 13.5599C43.3041 13.5809 43.2703 13.5923 43.2355 13.5922C43.2355 13.5922 42.0248 13.6214 41.4296 13.6506C40.3089 13.6943 37.8149 15.0651 35.9771 19.0113L33.8751 23.532C33.8577 23.5692 33.8295 23.6001 33.7943 23.621C33.7591 23.6418 33.7185 23.6514 33.6777 23.6487L31.9996 23.6516C31.8979 23.6516 31.7876 23.7333 31.7441 23.8266L29.1369 31.2493C29.1171 31.3016 29.1112 31.3582 29.1198 31.4134C29.1285 31.4687 29.1514 31.5207 29.1862 31.5643L31.0066 32.7076C31.0306 32.728 31.0486 32.7544 31.0588 32.7842C31.069 32.814 31.0711 32.846 31.0647 32.8768L30.1124 35.6972C30.1003 35.7607 30.0777 35.8219 30.0456 35.878L28.7827 36.9921C28.7291 37.0364 28.693 37.0985 28.6811 37.1671L26.9449 41.6295C26.935 41.668 26.9124 41.702 26.8807 41.7259C26.849 41.7497 26.8102 41.762 26.7707 41.7608L25.7951 41.7666C25.6769 41.7669 25.563 41.8117 25.4759 41.8921C25.3889 41.9725 25.335 42.0828 25.3248 42.2012L24.7412 48.8744L24.6948 49.2273L24.236 51.8755C24.2171 51.9365 24.1832 51.9917 24.1373 52.036L22.5173 53.2813C21.6504 54.1519 20.9017 55.1335 20.2904 56.2009L14.8902 67.6456C14.7503 67.9393 14.6732 68.2593 14.6638 68.5847L15.047 69.2701C15.0528 69.5151 14.9541 70.6001 14.8438 70.8159L13.0321 73.995C13.0126 74.0332 13.0017 74.0752 13.0002 74.118C12.9987 74.1609 13.0066 74.2035 13.0234 74.2429L13.1105 74.4471L13.3834 74.9925L18.8736 74.9983C19.2162 75.0304 19.5907 74.59 19.6023 74.1234L19.9014 70.3405L19.823 69.7718L30.2924 57.4287C30.5682 57.0963 30.9369 56.5042 31.1228 56.1163L36.1136 45.0624C36.1423 45.0022 36.1828 44.9484 36.2327 44.9043C36.2826 44.8602 36.3408 44.8266 36.4039 44.8057L36.7204 44.7036C36.8142 44.6731 36.9149 44.6716 37.0096 44.6991C37.1043 44.7267 37.1886 44.7821 37.2517 44.8582C37.6872 45.3861 38.715 47.1361 39.2144 47.8681C39.6295 48.4748 41.6822 51.4556 42.5764 52.4384C42.8261 52.7097 43.5897 53.0159 43.9294 53.2259C43.9835 53.2582 44.0228 53.3104 44.0391 53.3714C44.0554 53.4325 44.0473 53.4975 44.0165 53.5526L41.026 58.8258L39.705 65.0557C39.6587 65.2005 39.6238 65.3487 39.6005 65.499L38.4043 69.8243C38.413 70.3726 37.9979 70.6584 37.9601 71.303L37.5246 74.4646C37.5242 74.4876 37.5284 74.5104 37.5368 74.5318C37.5452 74.5532 37.5577 74.5727 37.5736 74.5892C37.5895 74.6057 37.6085 74.6189 37.6295 74.6281C37.6505 74.6372 37.673 74.6421 37.6959 74.6425L45.082 74.6834C45.3568 74.6814 45.6336 74.6756 45.9123 74.6659L46.1301 74.6454C46.4901 74.5988 47.7647 74.4238 48.3076 74.208C48.5524 74.1318 48.7774 74.0023 48.9667 73.8288C49.5038 73.263 49.5473 73.018 49.556 72.668C49.5477 72.5618 49.5202 72.458 49.4747 72.3617C49.433 72.2982 49.3719 72.2501 49.3005 72.2247L45.8746 71.1864C45.6537 71.119 45.4603 70.982 45.323 70.7955L44.4026 69.4247C44.383 69.3776 44.3774 69.3257 44.3867 69.2754C44.396 69.2252 44.4197 69.1787 44.4549 69.1418L46.2491 67.3656C46.3103 67.3067 46.3579 67.235 46.3885 67.1556L51.9164 54.0659C52.1748 53.2347 52.0877 52.3014 51.9164 51.3126C51.7887 50.5835 49.9248 47.4452 49.437 46.5761L45.7033 40.0108C45.4739 39.6083 45.1517 39.6229 45.0413 39.2058L44.8294 35.9451C44.8251 35.9285 44.8245 35.9111 44.8276 35.8942C44.8308 35.8774 44.8376 35.8614 44.8475 35.8475C44.8575 35.8335 44.8704 35.822 44.8854 35.8137C44.9003 35.8053 44.9169 35.8004 44.9339 35.7992L45.892 35.7176C45.9366 35.7127 45.9795 35.6976 46.0173 35.6733C46.055 35.649 46.0867 35.6162 46.1098 35.5776L49.4399 29.2923C49.4614 29.2496 49.4721 29.2023 49.4711 29.1545C49.4701 29.1067 49.4574 29.0599 49.4341 29.0181L48.7518 28.1723C48.7295 28.1334 48.7175 28.0893 48.717 28.0444C48.7165 27.9994 48.7275 27.9551 48.7489 27.9157L49.7709 26.8074C49.7915 26.7717 49.8253 26.7456 49.865 26.7347C49.9046 26.7237 49.9469 26.7289 49.9828 26.749L52.6945 28.2832C52.86 28.3752 53.0454 28.4253 53.2346 28.429C53.9894 28.4261 55.2262 27.9798 55.8708 27.5832C56.04 27.4766 56.179 27.3279 56.2743 27.1515L57.6041 24.0308C57.6215 23.9899 57.6825 23.9958 57.6912 24.0395L58.0599 25.7749C58.0646 25.8 58.0745 25.8239 58.0888 25.845C58.1031 25.8662 58.1216 25.8841 58.1431 25.8978C58.1646 25.9115 58.1887 25.9206 58.2138 25.9245C58.2389 25.9284 58.2646 25.9272 58.2893 25.9207L62.2088 25.0457C62.2579 25.0346 62.3006 25.0044 62.3278 24.9619C62.3549 24.9193 62.3643 24.8677 62.3539 24.8182L61.4278 20.8983C61.4218 20.8715 61.4213 20.8437 61.4263 20.8166C61.4313 20.7895 61.4416 20.7638 61.4568 20.7408L61.8342 20.1488C61.8818 20.0749 61.918 19.9943 61.9417 19.9096L62.4033 17.7951C62.4087 17.7683 62.4233 17.7443 62.4445 17.7273C62.4658 17.7102 62.4922 17.7012 62.5194 17.7017L73.3547 17.7163C73.3905 17.7175 73.4261 17.7114 73.4594 17.6982C73.4927 17.685 73.523 17.665 73.5483 17.6396C73.5736 17.6142 73.5935 17.5838 73.6066 17.5503C73.6197 17.5168 73.6259 17.481 73.6247 17.4451V15.596C73.6242 15.5875 73.6256 15.5791 73.6287 15.5713C73.6317 15.5634 73.6365 15.5564 73.6426 15.5505C73.6486 15.5447 73.6559 15.5403 73.6638 15.5376C73.6718 15.5348 73.6802 15.5338 73.6885 15.5347H77.8664C77.9021 15.5339 77.9361 15.5192 77.9611 15.4935C77.986 15.4679 78 15.4335 78 15.3976V14.5664C78 14.5305 77.986 14.4961 77.9611 14.4705C77.9361 14.4449 77.9021 14.4301 77.8664 14.4293H73.6856L73.6914 14.4351Z" fill="black" stroke="white" mask="url(#path-2-inside-1_191_19)"/>
</svg>
