<svg width="206" height="60" viewBox="0 0 206 60" fill="none" xmlns="http://www.w3.org/2000/svg">
<path d="M50 11.1714C40.0245 10.962 30.2018 10.1222 20.1903 10.1222C17.8708 10.1222 13.5219 9.55059 11.8584 10.8799C9.78488 12.537 10.0069 14.4361 10.0069 16.4173C10.0069 23.6728 11.8119 30.8936 12.9694 38.1003C13.5441 41.6789 14.7873 45.244 15.006 48.8252C15.0949 50.2792 17.3602 48.209 18.1536 48.0092C22.3958 46.9408 26.8191 47.4971 31.2995 47.7761C34.4799 47.9741 37.6663 48.1169 40.7423 48.7087C42.1247 48.9746 44.6943 50.2335 46.2044 49.9618C48.3023 49.5844 45.2851 45.9022 45.0934 45.2988C43.9918 41.8309 44.8044 37.2266 45.4637 33.787C45.6592 32.7674 48.3446 26.4032 45.0009 29.5611C43.902 30.5989 42.0796 32.5886 40.372 33.175C38.6947 33.751 37.8021 34.6228 36.2524 35.2733C34.6768 35.9347 32.536 35.9789 31.2532 36.8763C29.4732 38.1215 23.3379 37.554 23.3379 39.4992" stroke="#7F00BB" stroke-width="6" stroke-linecap="round"/>
<path d="M65.3877 26.9121C65.5557 27.1081 65.7096 27.318 65.8496 27.542C65.9896 27.738 66.1156 28.0179 66.2275 28.3818C66.3395 28.7178 66.4235 29.1657 66.4795 29.7256C66.5635 30.2855 66.6055 31.0133 66.6055 31.9092C66.6055 33.3369 66.5635 34.7786 66.4795 36.2344C66.4235 37.6621 66.3675 38.9219 66.3115 40.0137C66.2835 40.9935 66.2555 41.9033 66.2275 42.7432C66.1995 43.583 66.1715 44.3249 66.1436 44.9688C66.1156 45.5846 66.0736 46.0745 66.0176 46.4385C65.9896 46.8024 65.9616 46.9984 65.9336 47.0264C65.8216 47.1104 65.6396 47.0824 65.3877 46.9424C65.1637 46.7744 64.9118 46.5645 64.6318 46.3125C64.3799 46.0605 64.1419 45.7946 63.918 45.5146C63.694 45.2347 63.554 45.0107 63.498 44.8428C63.498 44.7028 63.4561 44.2969 63.3721 43.625C62.7002 44.0169 61.9583 44.2969 61.1465 44.4648C60.3346 44.6048 59.5228 44.6608 58.7109 44.6328C57.9271 44.5768 57.1992 44.4229 56.5273 44.1709C55.8555 43.9189 55.3516 43.583 55.0156 43.1631C54.8757 42.9951 54.7497 42.7432 54.6377 42.4072C54.5537 42.0713 54.4697 41.6934 54.3857 41.2734C54.3298 40.8255 54.2738 40.3636 54.2178 39.8877C54.1618 39.3838 54.1198 38.9219 54.0918 38.502C54.0358 37.4102 54.1758 36.4723 54.5117 35.6885C54.8477 34.8766 55.4635 34.2747 56.3594 33.8828C56.7513 33.7148 57.2692 33.6309 57.9131 33.6309C58.585 33.6029 59.2428 33.6309 59.8867 33.7148C60.5586 33.7708 61.1605 33.8548 61.6924 33.9668C62.2243 34.0508 62.5602 34.1208 62.7002 34.1768C62.5882 32.749 62.5042 31.5173 62.4482 30.4814C62.3923 29.4176 62.2803 28.7318 62.1123 28.4238C61.9723 28.2279 61.8044 28.0319 61.6084 27.8359C61.4404 27.696 61.2165 27.542 60.9365 27.374C60.6566 27.2061 60.3206 27.0801 59.9287 26.9961C59.6208 26.9401 59.3408 27.0661 59.0889 27.374C58.8649 27.654 58.6549 28.1579 58.459 28.8857C58.291 29.5856 58.193 30.6634 58.165 32.1191C57.1852 32.1471 56.4294 32.1471 55.8975 32.1191C55.3936 32.0632 55.0156 32.0072 54.7637 31.9512C54.4557 31.8952 54.2738 31.8252 54.2178 31.7412C54.1618 31.6292 54.1898 31.2233 54.3018 30.5234C54.4137 29.7956 54.5677 29.0117 54.7637 28.1719C54.9876 27.332 55.2396 26.5342 55.5195 25.7783C55.8275 25.0225 56.1494 24.5465 56.4854 24.3506C57.1572 23.9587 57.9551 23.8187 58.8789 23.9307C59.8307 24.0426 60.7546 24.2806 61.6504 24.6445C62.5462 25.0085 63.3441 25.4144 64.0439 25.8623C64.7438 26.3102 65.1917 26.6602 65.3877 26.9121ZM62.7842 39.1738C62.7842 39.0339 62.7982 38.8519 62.8262 38.6279C62.8542 38.376 62.8682 38.124 62.8682 37.8721C62.8682 37.6201 62.8542 37.3822 62.8262 37.1582C62.8262 36.9342 62.7982 36.7663 62.7422 36.6543C62.6582 36.4863 62.4062 36.3464 61.9863 36.2344C61.5944 36.1224 61.1465 36.0524 60.6426 36.0244C60.1387 35.9684 59.6628 35.9544 59.2148 35.9824C58.7669 35.9824 58.459 36.0384 58.291 36.1504C58.0671 36.2904 57.8991 36.4863 57.7871 36.7383C57.7031 36.9902 57.6471 37.3822 57.6191 37.9141C57.6191 38.166 57.6331 38.432 57.6611 38.7119C57.6891 38.9919 57.7171 39.2718 57.7451 39.5518C57.8011 39.8037 57.8571 40.0277 57.9131 40.2236C57.9971 40.4196 58.0811 40.5456 58.165 40.6016C58.361 40.7415 58.6969 40.8675 59.1729 40.9795C59.6768 41.0635 60.1807 41.0915 60.6846 41.0635C61.1885 41.0075 61.6504 40.8395 62.0703 40.5596C62.4902 40.2796 62.7282 39.8177 62.7842 39.1738ZM88.4078 24.1406C88.9397 24.5885 89.3316 25.4844 89.5836 26.8281C89.8355 28.1439 89.9335 29.6136 89.8775 31.2373C89.8495 31.7412 89.7796 32.4411 89.6676 33.3369C89.5556 34.2048 89.4156 35.1706 89.2477 36.2344C89.1077 37.2702 88.9397 38.334 88.7437 39.4258C88.5758 40.5176 88.4078 41.5254 88.2398 42.4492C88.0719 43.373 87.9179 44.1569 87.7779 44.8008C87.666 45.4167 87.596 45.7806 87.568 45.8926C87.512 46.0885 87.358 46.2845 87.1061 46.4805C86.8541 46.6764 86.5882 46.8444 86.3082 46.9844C86.0562 47.0964 85.8043 47.1803 85.5523 47.2363C85.3004 47.2643 85.1464 47.2083 85.0904 47.0684C85.0624 46.9844 85.0624 46.5505 85.0904 45.7666C85.1184 44.9827 85.1604 44.0169 85.2164 42.8691C85.2724 41.6934 85.3284 40.4476 85.3844 39.1318C85.4684 37.7881 85.5383 36.5283 85.5943 35.3525C85.6503 34.1768 85.7063 33.1829 85.7623 32.3711C85.8183 31.5312 85.8463 31.0273 85.8463 30.8594C85.8743 29.9915 85.8043 29.2357 85.6363 28.5918C85.4684 27.9199 85.1884 27.584 84.7965 27.584C84.6565 27.584 84.4885 27.654 84.2926 27.7939C84.0966 27.9059 83.9007 28.0459 83.7047 28.2139C83.5367 28.3818 83.3687 28.5638 83.2008 28.7598C83.0608 28.9557 82.9908 29.1377 82.9908 29.3057C82.9628 29.8096 82.9208 30.5514 82.8648 31.5312C82.8368 32.5111 82.7949 33.5889 82.7389 34.7646C82.7109 35.9404 82.6689 37.1442 82.6129 38.376C82.5849 39.6077 82.5429 40.7415 82.4869 41.7773C82.4589 42.8132 82.4309 43.681 82.4029 44.3809C82.3749 45.0527 82.3469 45.4307 82.3189 45.5146C82.263 45.6266 82.081 45.7106 81.773 45.7666C81.4931 45.7946 81.1712 45.7946 80.8072 45.7666C80.4433 45.7386 80.1074 45.6686 79.7994 45.5566C79.5195 45.4447 79.3515 45.2907 79.2955 45.0947C79.2395 44.9548 79.1975 44.5348 79.1695 43.835C79.1415 43.1071 79.0995 42.2393 79.0436 41.2314C79.0156 40.2236 78.9876 39.1458 78.9596 37.998C78.9316 36.8223 78.9036 35.7305 78.8756 34.7227C78.8476 33.7148 78.8196 32.847 78.7916 32.1191C78.7916 31.3913 78.7916 30.9434 78.7916 30.7754C78.7916 30.1035 78.7356 29.5716 78.6236 29.1797C78.5117 28.7598 78.3717 28.4378 78.2037 28.2139C78.0637 27.9619 77.8958 27.8079 77.6998 27.752C77.5038 27.668 77.3079 27.626 77.1119 27.626C77.0279 27.626 76.902 27.696 76.734 27.8359C76.566 27.9479 76.398 28.1299 76.2301 28.3818C76.0621 28.6058 75.9221 28.8717 75.8102 29.1797C75.6982 29.4596 75.6562 29.7676 75.6842 30.1035C75.6842 30.2435 75.6982 30.7614 75.7262 31.6572C75.7542 32.5531 75.7682 33.6309 75.7682 34.8906C75.7962 36.1504 75.8242 37.5081 75.8521 38.9639C75.8801 40.4196 75.8941 41.7773 75.8941 43.0371C75.9221 44.2689 75.9361 45.3187 75.9361 46.1865C75.9361 47.0264 75.9361 47.4743 75.9361 47.5303C75.8801 47.6702 75.7262 47.7542 75.4742 47.7822C75.2223 47.7822 74.9423 47.7262 74.6344 47.6143C74.3264 47.5023 74.0325 47.3483 73.7525 47.1523C73.4726 46.9284 73.2766 46.6624 73.1646 46.3545C73.1087 46.1305 73.0247 45.6406 72.9127 44.8848C72.8007 44.1289 72.6747 43.2331 72.5348 42.1973C72.3948 41.1335 72.2548 39.9997 72.1148 38.7959C71.9749 37.5641 71.8349 36.3883 71.6949 35.2686C71.5549 34.1208 71.429 33.085 71.317 32.1611C71.233 31.2373 71.163 30.5374 71.107 30.0615C71.023 29.3896 70.9251 28.6618 70.8131 27.8779C70.7291 27.0661 70.6451 26.2962 70.5611 25.5684C70.5051 24.8125 70.4632 24.1686 70.4352 23.6367C70.4072 23.0768 70.4352 22.7269 70.5191 22.5869C70.5751 22.4749 70.7711 22.4329 71.107 22.4609C71.471 22.4889 71.8489 22.5729 72.2408 22.7129C72.6607 22.8249 73.0527 22.9928 73.4166 23.2168C73.8085 23.4128 74.0605 23.6227 74.1725 23.8467C74.2564 24.0146 74.3404 24.2246 74.4244 24.4766C74.5364 24.7005 74.6484 25.0645 74.7604 25.5684C75.2363 25.2044 75.7262 24.8685 76.2301 24.5605C76.734 24.2246 77.2379 23.9727 77.7418 23.8047C78.2457 23.6087 78.7216 23.5107 79.1695 23.5107C79.6454 23.4827 80.0934 23.6087 80.5133 23.8887C80.8772 24.1686 81.2271 24.6585 81.5631 25.3584C82.9068 24.6025 84.1946 24.0846 85.4264 23.8047C86.6861 23.4967 87.6799 23.6087 88.4078 24.1406ZM98.6203 30.9434C98.6763 31.0833 98.7043 31.5312 98.7043 32.2871C98.7323 33.015 98.7323 33.9108 98.7043 34.9746C98.7043 36.0104 98.6763 37.1302 98.6203 38.334C98.5643 39.5098 98.4943 40.6296 98.4104 41.6934C98.3544 42.7292 98.2844 43.625 98.2004 44.3809C98.1164 45.1087 98.0324 45.5426 97.9484 45.6826C97.6965 46.0745 97.3186 46.3265 96.8146 46.4385C96.3107 46.5225 95.9468 46.5365 95.7229 46.4805C95.6109 46.4805 95.4849 46.1585 95.3449 45.5146C95.2329 44.8708 95.121 44.0589 95.009 43.0791C94.897 42.0993 94.799 41.0355 94.715 39.8877C94.6311 38.7399 94.5611 37.6481 94.5051 36.6123C94.4491 35.5485 94.4211 34.6247 94.4211 33.8408C94.4211 33.057 94.4491 32.5531 94.5051 32.3291C94.5891 31.9652 94.827 31.6432 95.2189 31.3633C95.6389 31.0833 96.0728 30.8734 96.5207 30.7334C96.9966 30.5934 97.4305 30.5374 97.8225 30.5654C98.2424 30.5654 98.5083 30.6914 98.6203 30.9434ZM98.8303 24.1406C98.9423 24.3646 98.9842 24.6725 98.9562 25.0645C98.9562 25.4564 98.9143 25.8623 98.8303 26.2822C98.7463 26.7021 98.6343 27.1081 98.4943 27.5C98.3544 27.8919 98.2144 28.1999 98.0744 28.4238C97.7945 28.8158 97.3745 29.0677 96.8146 29.1797C96.2827 29.2637 95.8908 29.2777 95.6389 29.2217C95.4429 29.1937 95.2469 29.0677 95.051 28.8438C94.855 28.5918 94.687 28.2979 94.5471 27.9619C94.4071 27.598 94.3091 27.2061 94.2531 26.7861C94.1971 26.3662 94.2111 25.9743 94.2951 25.6104C94.3791 25.2464 94.6451 24.9245 95.093 24.6445C95.5409 24.3366 96.0168 24.1126 96.5207 23.9727C97.0246 23.8047 97.5005 23.7347 97.9484 23.7627C98.3964 23.7627 98.6903 23.8887 98.8303 24.1406ZM115.971 31.4053C115.971 31.8532 115.915 32.4971 115.804 33.3369C115.72 34.1768 115.594 35.1006 115.426 36.1084C115.258 37.0882 115.076 38.11 114.88 39.1738C114.712 40.2096 114.53 41.1615 114.334 42.0293C114.166 42.8971 114.012 43.625 113.872 44.2129C113.76 44.8008 113.69 45.1227 113.662 45.1787C113.606 45.2627 113.452 45.3187 113.2 45.3467C112.976 45.3467 112.71 45.3187 112.402 45.2627C112.122 45.2067 111.856 45.1227 111.604 45.0107C111.38 44.8988 111.24 44.7588 111.184 44.5908C111.156 44.4788 111.142 44.0869 111.142 43.415C111.17 42.7432 111.198 41.9453 111.226 41.0215C111.282 40.0697 111.338 39.0618 111.394 37.998C111.45 36.9062 111.506 35.8984 111.562 34.9746C111.646 34.0228 111.702 33.2109 111.73 32.5391C111.786 31.8672 111.814 31.4613 111.814 31.3213C111.814 30.8174 111.758 30.3415 111.646 29.8936C111.562 29.4176 111.45 29.0117 111.31 28.6758C111.17 28.3398 111.002 28.0879 110.806 27.9199C110.638 27.724 110.485 27.654 110.345 27.71C109.981 27.766 109.673 27.8639 109.421 28.0039C109.169 28.1159 108.959 28.2419 108.791 28.3818C108.595 28.5498 108.441 28.7458 108.329 28.9697C108.301 29.0257 108.245 29.1937 108.161 29.4736C108.105 29.7536 108.077 30.0755 108.077 30.4395C108.077 30.5514 108.077 30.9574 108.077 31.6572C108.077 32.3291 108.063 33.141 108.035 34.0928C108.035 35.0446 108.021 36.0804 107.993 37.2002C107.993 38.292 107.979 39.3138 107.951 40.2656C107.951 41.1895 107.937 41.9873 107.909 42.6592C107.881 43.3311 107.853 43.709 107.825 43.793C107.769 43.9609 107.629 44.1989 107.405 44.5068C107.181 44.7868 106.929 45.0527 106.649 45.3047C106.369 45.5566 106.103 45.7526 105.851 45.8926C105.599 46.0046 105.431 45.9766 105.347 45.8086C105.263 45.7246 105.179 45.3187 105.096 44.5908C105.012 43.835 104.914 42.9251 104.802 41.8613C104.718 40.7695 104.62 39.5938 104.508 38.334C104.396 37.0462 104.298 35.8145 104.214 34.6387C104.13 33.4629 104.06 32.3991 104.004 31.4473C103.948 30.4954 103.906 29.8096 103.878 29.3896C103.85 28.8018 103.822 28.1439 103.794 27.416C103.766 26.6602 103.738 25.9603 103.71 25.3164C103.71 24.6445 103.71 24.0706 103.71 23.5947C103.738 23.0908 103.794 22.7829 103.878 22.6709C103.934 22.5589 104.116 22.5309 104.424 22.5869C104.76 22.6429 105.11 22.7549 105.473 22.9229C105.865 23.0628 106.229 23.2448 106.565 23.4688C106.901 23.6647 107.125 23.8607 107.237 24.0566C107.293 24.2246 107.363 24.4206 107.447 24.6445C107.531 24.8405 107.601 25.1764 107.657 25.6523C108.133 25.3724 108.651 25.1204 109.211 24.8965C109.771 24.6445 110.317 24.4626 110.848 24.3506C111.408 24.2106 111.94 24.1686 112.444 24.2246C112.948 24.2526 113.396 24.3926 113.788 24.6445C114.04 24.8405 114.292 25.1764 114.544 25.6523C114.824 26.1283 115.062 26.6882 115.258 27.332C115.482 27.9759 115.65 28.6618 115.762 29.3896C115.901 30.0895 115.971 30.7614 115.971 31.4053ZM131.223 50.3438C131.167 50.5117 130.999 50.7777 130.719 51.1416C130.439 51.5055 130.103 51.8835 129.711 52.2754C129.319 52.6673 128.927 53.0173 128.536 53.3252C128.144 53.6331 127.822 53.8291 127.57 53.9131C127.01 54.0811 126.408 54.0391 125.764 53.7871C125.148 53.5632 124.546 53.2552 123.958 52.8633C123.399 52.4714 122.909 52.0654 122.489 51.6455C122.069 51.2536 121.803 50.9596 121.691 50.7637C121.607 50.5677 121.523 50.3018 121.439 49.9658C121.383 49.6299 121.341 49.2939 121.313 48.958C121.285 48.6221 121.285 48.3421 121.313 48.1182C121.369 47.8662 121.467 47.7402 121.607 47.7402C121.747 47.7402 122.069 47.8802 122.573 48.1602C123.105 48.4121 123.65 48.6781 124.21 48.958C124.798 49.238 125.344 49.4619 125.848 49.6299C126.352 49.7979 126.66 49.7699 126.772 49.5459C126.884 49.3499 126.982 48.804 127.066 47.9082C127.178 46.9844 127.304 45.8646 127.444 44.5488C127.388 44.5488 127.332 44.5628 127.276 44.5908C127.248 44.5908 127.206 44.5908 127.15 44.5908C126.898 44.6748 126.548 44.7168 126.1 44.7168C125.652 44.7168 125.176 44.6888 124.672 44.6328C124.196 44.5768 123.72 44.4788 123.245 44.3389C122.797 44.1709 122.433 43.9609 122.153 43.709C122.041 43.597 121.915 43.429 121.775 43.2051C121.663 42.9531 121.579 42.6312 121.523 42.2393C121.439 42.0713 121.299 41.5954 121.103 40.8115C120.907 39.9997 120.711 39.0898 120.515 38.082C120.319 37.0462 120.137 36.0104 119.969 34.9746C119.829 33.9388 119.787 33.113 119.843 32.4971C119.871 31.8812 119.983 31.2513 120.179 30.6074C120.375 29.9355 120.599 29.3057 120.851 28.7178C121.131 28.1299 121.425 27.626 121.733 27.2061C122.041 26.7581 122.349 26.4502 122.657 26.2822C123.329 25.9463 124.168 25.8763 125.176 26.0723C126.184 26.2682 127.262 26.6462 128.41 27.2061C128.438 26.9261 128.564 26.6182 128.787 26.2822C129.011 25.9463 129.263 25.6523 129.543 25.4004C129.851 25.1204 130.159 24.9245 130.467 24.8125C130.775 24.6725 131.013 24.6585 131.181 24.7705C131.265 24.8265 131.335 25.2184 131.391 25.9463C131.447 26.6462 131.489 27.57 131.517 28.7178C131.573 29.8376 131.601 31.1253 131.601 32.5811C131.629 34.0088 131.629 35.4925 131.601 37.0322C131.601 38.5439 131.587 40.0417 131.559 41.5254C131.559 43.0091 131.531 44.3669 131.475 45.5986C131.447 46.8304 131.405 47.8662 131.349 48.7061C131.321 49.5459 131.279 50.0918 131.223 50.3438ZM128.284 30.3975C128.116 30.2855 127.92 30.1735 127.696 30.0615C127.5 29.9495 127.276 29.8376 127.024 29.7256C126.772 29.6136 126.492 29.5156 126.184 29.4316C126.044 29.3757 125.848 29.4316 125.596 29.5996C125.372 29.7676 125.134 30.0055 124.882 30.3135C124.658 30.6214 124.462 30.9993 124.294 31.4473C124.126 31.8672 124.042 32.3151 124.042 32.791C124.042 32.847 124.056 33.113 124.084 33.5889C124.112 34.0648 124.154 34.6387 124.21 35.3105C124.266 35.9824 124.322 36.7103 124.378 37.4941C124.434 38.278 124.49 39.0059 124.546 39.6777C124.63 40.3496 124.7 40.9235 124.756 41.3994C124.812 41.8473 124.854 42.0853 124.882 42.1133C124.994 42.2253 125.148 42.2812 125.344 42.2812C125.568 42.2812 125.778 42.2533 125.974 42.1973C126.198 42.1413 126.394 42.0713 126.562 41.9873C126.73 41.9033 126.856 41.8333 126.94 41.7773C127.304 41.5254 127.528 41.0355 127.612 40.3076C127.668 40.2516 127.696 40.0977 127.696 39.8457C127.78 37.998 127.864 36.3324 127.948 34.8486C128.032 33.3369 128.144 31.8532 128.284 30.3975Z" fill="#7F00BB"/>
<path d="M153.37 26.0303C153.258 25.9183 153.02 25.8063 152.656 25.6943C152.292 25.5824 152.04 25.6243 151.9 25.8203C151.816 25.9323 151.676 26.2962 151.48 26.9121C151.284 27.528 151.074 28.3118 150.85 29.2637C150.654 30.2155 150.472 31.3073 150.304 32.5391C150.164 33.7708 150.094 35.0446 150.094 36.3604C150.094 37.3122 150.136 38.222 150.22 39.0898C150.304 39.9297 150.402 40.6715 150.514 41.3154C150.654 41.9593 150.808 42.4772 150.976 42.8691C151.172 43.2611 151.368 43.471 151.564 43.499C151.732 43.499 151.928 43.3031 152.152 42.9111C152.404 42.5192 152.642 42.0713 152.866 41.5674C153.118 41.0355 153.328 40.5456 153.496 40.0977C153.692 39.6217 153.832 39.3138 153.916 39.1738C154.14 38.8099 154.434 38.502 154.797 38.25C155.161 37.9701 155.469 37.8301 155.721 37.8301C155.861 37.8301 155.959 37.9281 156.015 38.124C156.099 38.32 156.155 38.5579 156.183 38.8379C156.239 39.0898 156.267 39.3558 156.267 39.6357C156.267 39.9157 156.267 40.1396 156.267 40.3076C156.267 40.6156 156.211 41.1895 156.099 42.0293C155.987 42.8691 155.819 43.723 155.595 44.5908C155.399 45.4587 155.161 46.2285 154.881 46.9004C154.629 47.5723 154.35 47.8942 154.042 47.8662C153.734 47.8382 153.272 47.6982 152.656 47.4463C152.04 47.1943 151.41 46.9004 150.766 46.5645C150.15 46.2285 149.576 45.8926 149.045 45.5566C148.541 45.1927 148.233 44.9128 148.121 44.7168C148.009 44.5208 147.841 44.0449 147.617 43.2891C147.393 42.5052 147.155 41.5534 146.903 40.4336C146.679 39.3138 146.483 38.082 146.315 36.7383C146.147 35.3945 146.063 34.0508 146.063 32.707C146.063 31.3633 146.091 30.0335 146.147 28.7178C146.231 27.402 146.357 26.2262 146.525 25.1904C146.693 24.1546 146.903 23.3148 147.155 22.6709C147.435 22.027 147.771 21.6911 148.163 21.6631C149.254 21.5511 150.346 21.6491 151.438 21.957C152.558 22.237 153.552 22.6289 154.42 23.1328C155.315 23.6087 156.043 24.1266 156.603 24.6865C157.163 25.2184 157.457 25.6663 157.485 26.0303C157.513 26.4222 157.485 26.9681 157.401 27.668C157.345 28.3678 157.247 29.0817 157.107 29.8096C156.995 30.5094 156.855 31.1533 156.687 31.7412C156.547 32.3011 156.421 32.623 156.309 32.707C156.057 32.959 155.763 33.2249 155.427 33.5049C155.091 33.7848 154.769 33.8408 154.462 33.6729C154.35 33.6169 154.252 33.4069 154.168 33.043C154.084 32.651 154 32.1751 153.916 31.6152C153.86 31.0553 153.804 30.4535 153.748 29.8096C153.692 29.1657 153.636 28.5778 153.58 28.0459C153.552 27.486 153.51 27.0241 153.454 26.6602C153.426 26.2682 153.398 26.0583 153.37 26.0303ZM172.485 26.9121C172.653 27.1081 172.807 27.318 172.946 27.542C173.086 27.738 173.212 28.0179 173.324 28.3818C173.436 28.7178 173.52 29.1657 173.576 29.7256C173.66 30.2855 173.702 31.0133 173.702 31.9092C173.702 33.3369 173.66 34.7786 173.576 36.2344C173.52 37.6621 173.464 38.9219 173.408 40.0137C173.38 40.9935 173.352 41.9033 173.324 42.7432C173.296 43.583 173.268 44.3249 173.24 44.9688C173.212 45.5846 173.17 46.0745 173.114 46.4385C173.086 46.8024 173.058 46.9984 173.03 47.0264C172.918 47.1104 172.737 47.0824 172.485 46.9424C172.261 46.7744 172.009 46.5645 171.729 46.3125C171.477 46.0605 171.239 45.7946 171.015 45.5146C170.791 45.2347 170.651 45.0107 170.595 44.8428C170.595 44.7028 170.553 44.2969 170.469 43.625C169.797 44.0169 169.055 44.2969 168.243 44.4648C167.432 44.6048 166.62 44.6608 165.808 44.6328C165.024 44.5768 164.296 44.4229 163.624 44.1709C162.952 43.9189 162.448 43.583 162.113 43.1631C161.973 42.9951 161.847 42.7432 161.735 42.4072C161.651 42.0713 161.567 41.6934 161.483 41.2734C161.427 40.8255 161.371 40.3636 161.315 39.8877C161.259 39.3838 161.217 38.9219 161.189 38.502C161.133 37.4102 161.273 36.4723 161.609 35.6885C161.945 34.8766 162.56 34.2747 163.456 33.8828C163.848 33.7148 164.366 33.6309 165.01 33.6309C165.682 33.6029 166.34 33.6309 166.984 33.7148C167.655 33.7708 168.257 33.8548 168.789 33.9668C169.321 34.0508 169.657 34.1208 169.797 34.1768C169.685 32.749 169.601 31.5173 169.545 30.4814C169.489 29.4176 169.377 28.7318 169.209 28.4238C169.069 28.2279 168.901 28.0319 168.705 27.8359C168.537 27.696 168.313 27.542 168.033 27.374C167.753 27.2061 167.418 27.0801 167.026 26.9961C166.718 26.9401 166.438 27.0661 166.186 27.374C165.962 27.654 165.752 28.1579 165.556 28.8857C165.388 29.5856 165.29 30.6634 165.262 32.1191C164.282 32.1471 163.526 32.1471 162.994 32.1191C162.49 32.0632 162.113 32.0072 161.861 31.9512C161.553 31.8952 161.371 31.8252 161.315 31.7412C161.259 31.6292 161.287 31.2233 161.399 30.5234C161.511 29.7956 161.665 29.0117 161.861 28.1719C162.085 27.332 162.336 26.5342 162.616 25.7783C162.924 25.0225 163.246 24.5465 163.582 24.3506C164.254 23.9587 165.052 23.8187 165.976 23.9307C166.928 24.0426 167.851 24.2806 168.747 24.6445C169.643 25.0085 170.441 25.4144 171.141 25.8623C171.841 26.3102 172.289 26.6602 172.485 26.9121ZM169.881 39.1738C169.881 39.0339 169.895 38.8519 169.923 38.6279C169.951 38.376 169.965 38.124 169.965 37.8721C169.965 37.6201 169.951 37.3822 169.923 37.1582C169.923 36.9342 169.895 36.7663 169.839 36.6543C169.755 36.4863 169.503 36.3464 169.083 36.2344C168.691 36.1224 168.243 36.0524 167.739 36.0244C167.236 35.9684 166.76 35.9544 166.312 35.9824C165.864 35.9824 165.556 36.0384 165.388 36.1504C165.164 36.2904 164.996 36.4863 164.884 36.7383C164.8 36.9902 164.744 37.3822 164.716 37.9141C164.716 38.166 164.73 38.432 164.758 38.7119C164.786 38.9919 164.814 39.2718 164.842 39.5518C164.898 39.8037 164.954 40.0277 165.01 40.2236C165.094 40.4196 165.178 40.5456 165.262 40.6016C165.458 40.7415 165.794 40.8675 166.27 40.9795C166.774 41.0635 167.278 41.0915 167.781 41.0635C168.285 41.0075 168.747 40.8395 169.167 40.5596C169.587 40.2796 169.825 39.8177 169.881 39.1738ZM181.143 43.751C180.751 42.3232 180.318 40.6436 179.842 38.7119C179.45 37.0602 178.974 35.0586 178.414 32.707C177.882 30.3275 177.308 27.612 176.692 24.5605C176.692 24.3646 176.818 24.1266 177.07 23.8467C177.294 23.5387 177.574 23.2588 177.91 23.0068C178.246 22.7269 178.596 22.5029 178.96 22.335C179.324 22.139 179.646 22.041 179.926 22.041C180.038 22.209 180.234 22.9508 180.513 24.2666C180.625 24.8265 180.751 25.5404 180.891 26.4082C181.059 27.248 181.241 28.2979 181.437 29.5576C181.633 30.8174 181.843 32.3011 182.067 34.0088C182.319 35.6885 182.599 37.6341 182.907 39.8457C183.131 38.334 183.341 36.9062 183.537 35.5625C183.761 34.2188 183.957 33.029 184.125 31.9932C184.321 30.7894 184.503 29.6696 184.671 28.6338C184.755 27.9899 184.853 27.318 184.965 26.6182C185.077 25.8903 185.189 25.2324 185.301 24.6445C185.441 24.0566 185.581 23.5667 185.721 23.1748C185.888 22.7549 186.056 22.5449 186.224 22.5449C186.392 22.5449 186.644 22.5869 186.98 22.6709C187.316 22.7269 187.652 22.8109 187.988 22.9229C188.352 23.0348 188.674 23.1748 188.954 23.3428C189.234 23.4827 189.374 23.6367 189.374 23.8047C189.374 23.8887 189.29 24.3086 189.122 25.0645C188.954 25.7923 188.73 26.7301 188.45 27.8779C188.17 29.0257 187.848 30.3275 187.484 31.7832C187.12 33.2109 186.742 34.6667 186.35 36.1504C185.986 37.6341 185.609 39.0898 185.217 40.5176C184.825 41.9453 184.461 43.2191 184.125 44.3389C183.817 45.4307 183.551 46.3265 183.327 47.0264C183.103 47.6982 182.949 48.0342 182.865 48.0342C182.781 48.0342 182.543 47.6562 182.151 46.9004C181.787 46.1165 181.451 45.0667 181.143 43.751ZM195.219 36.8643C195.667 36.6963 196.171 36.5143 196.731 36.3184C197.319 36.0944 197.879 35.8984 198.411 35.7305C198.942 35.5345 199.418 35.3665 199.838 35.2266C200.258 35.0866 200.566 34.9746 200.762 34.8906C200.734 34.5827 200.692 34.2327 200.636 33.8408C200.608 33.4209 200.566 33.029 200.51 32.665C200.454 32.2731 200.384 31.9372 200.3 31.6572C200.216 31.3773 200.132 31.2093 200.048 31.1533C199.824 31.0693 199.446 30.9993 198.914 30.9434C198.411 30.8594 197.879 30.8734 197.319 30.9854C196.787 31.0973 196.297 31.3073 195.849 31.6152C195.401 31.9232 195.149 32.4131 195.093 33.085C195.037 33.5329 195.023 34.0928 195.051 34.7646C195.079 35.4365 195.135 36.1364 195.219 36.8643ZM204.331 37.5361C204.303 37.5921 203.968 37.7041 203.324 37.8721C202.68 38.04 201.91 38.222 201.014 38.418C200.118 38.5859 199.166 38.7679 198.159 38.9639C197.151 39.1318 196.283 39.2718 195.555 39.3838C195.695 40.5036 195.863 41.5114 196.059 42.4072C196.255 43.2751 196.423 43.821 196.563 44.0449C196.703 44.2409 196.885 44.4229 197.109 44.5908C197.305 44.7308 197.543 44.8708 197.823 45.0107C198.131 45.1227 198.495 45.2067 198.914 45.2627C199.222 45.3467 199.516 45.2347 199.796 44.9268C200.02 44.6468 200.216 44.1569 200.384 43.457C200.58 42.7572 200.678 41.6514 200.678 40.1396C201.546 39.9997 202.218 39.9157 202.694 39.8877C203.198 39.8597 203.562 39.8597 203.786 39.8877C204.066 39.9157 204.233 39.9577 204.289 40.0137C204.317 40.0977 204.317 40.3076 204.289 40.6436C204.261 40.9795 204.191 41.3994 204.079 41.9033C203.996 42.3792 203.884 42.9111 203.744 43.499C203.632 44.0589 203.492 44.6048 203.324 45.1367C203.156 45.6406 202.974 46.1025 202.778 46.5225C202.582 46.9144 202.372 47.1943 202.148 47.3623C201.476 47.8662 200.636 48.1182 199.628 48.1182C198.621 48.0902 197.627 47.9502 196.647 47.6982C195.667 47.4183 194.785 47.0964 194.001 46.7324C193.218 46.3405 192.728 46.0186 192.532 45.7666C192.392 45.5986 192.266 45.1787 192.154 44.5068C192.042 43.807 191.944 42.9671 191.86 41.9873C191.804 41.0075 191.762 39.9297 191.734 38.7539C191.706 37.5781 191.72 36.4303 191.776 35.3105C191.86 34.1908 191.972 33.1549 192.112 32.2031C192.28 31.2513 192.504 30.4814 192.784 29.8936C193.204 29.0537 193.889 28.3678 194.841 27.8359C195.793 27.304 196.801 26.9401 197.865 26.7441C198.928 26.5482 199.936 26.5202 200.888 26.6602C201.868 26.8001 202.596 27.1081 203.072 27.584C203.352 27.8639 203.604 28.4238 203.828 29.2637C204.052 30.0755 204.191 31.0693 204.247 32.2451C204.247 32.3571 204.261 32.679 204.289 33.2109C204.317 33.7428 204.331 34.3167 204.331 34.9326C204.359 35.5205 204.373 36.0804 204.373 36.6123C204.373 37.1442 204.359 37.4521 204.331 37.5361Z" fill="white"/>
</svg>
