<svg width="46" height="46" viewBox="0 0 46 46" fill="none" xmlns="http://www.w3.org/2000/svg">
<path d="M43 4.17137C33.0245 3.96202 23.2018 3.12219 13.1903 3.12219C10.8708 3.12219 6.52193 2.55059 4.85844 3.87993C2.78488 5.53698 3.00691 7.43607 3.00691 9.41727C3.00691 16.6728 4.81188 23.8936 5.96936 31.1003C6.54412 34.6789 7.78727 38.244 8.00604 41.8252C8.09486 43.2792 10.3602 41.209 11.1536 41.0092C15.3958 39.9408 19.8191 40.4971 24.2995 40.7761C27.4799 40.9741 30.6663 41.1169 33.7423 41.7087C35.1247 41.9746 37.6943 43.2335 39.2044 42.9618C41.3023 42.5845 38.2851 38.9022 38.0934 38.2988C36.9918 34.8309 37.8044 30.2266 38.4637 26.787C38.6592 25.7674 41.3446 19.4032 38.0009 22.5611C36.902 23.5989 35.0796 25.5885 33.372 26.175C31.6947 26.751 30.8021 27.6228 29.2524 28.2733C27.6768 28.9347 25.536 28.9789 24.2532 29.8763C22.4732 31.1215 16.3379 30.554 16.3379 32.4992" stroke="#7F00BB" stroke-width="6" stroke-linecap="round"/>
</svg>
